<?xml version="1.0" encoding="UTF-8" standalone="no"?>
<!-- Created with Inkscape (http://www.inkscape.org/) -->
<svg
   xmlns:dc="http://purl.org/dc/elements/1.1/"
   xmlns:cc="http://web.resource.org/cc/"
   xmlns:rdf="http://www.w3.org/1999/02/22-rdf-syntax-ns#"
   xmlns:svg="http://www.w3.org/2000/svg"
   xmlns="http://www.w3.org/2000/svg"
   xmlns:sodipodi="http://inkscape.sourceforge.net/DTD/sodipodi-0.dtd"
   xmlns:inkscape="http://www.inkscape.org/namespaces/inkscape"
   width="210mm"
   height="297mm"
   id="svg2"
   sodipodi:version="0.32"
   inkscape:version="0.43"
   sodipodi:docbase="/home/gonzalo/Proyectos/ecomundo/images"
   sodipodi:docname="green4.svg">
  <defs
     id="defs4" />
  <sodipodi:namedview
     id="base"
     pagecolor="#ffffff"
     bordercolor="#666666"
     borderopacity="1.0"
     inkscape:pageopacity="0.0"
     inkscape:pageshadow="2"
     inkscape:zoom="0.99511834"
     inkscape:cx="203.65616"
     inkscape:cy="812.95125"
     inkscape:document-units="px"
     inkscape:current-layer="layer1"
     inkscape:window-width="851"
     inkscape:window-height="692"
     inkscape:window-x="0"
     inkscape:window-y="25" />
  <metadata
     id="metadata7">
    <rdf:RDF>
      <cc:Work
         rdf:about="">
        <dc:format>image/svg+xml</dc:format>
        <dc:type
           rdf:resource="http://purl.org/dc/dcmitype/StillImage" />
      </cc:Work>
    </rdf:RDF>
  </metadata>
  <g
     inkscape:label="Capa 1"
     inkscape:groupmode="layer"
     id="layer1">
    <path
       style="fill:#92622e;fill-opacity:1;fill-rule:evenodd;stroke:#000000;stroke-width:1;stroke-linecap:round;stroke-miterlimit:4;stroke-dasharray:none;stroke-opacity:1"
       d="M 182.85715,89.505043 C 249.52381,89.505043 316.19048,89.505043 382.85715,89.505043 C 382.85715,156.17171 382.85715,222.83837 382.85715,289.50504 C 316.19048,289.50504 249.52381,289.50504 182.85715,289.50504 C 182.85715,222.83837 182.85715,156.17171 182.85715,89.505043 z "
       id="rect1307"
       inkscape:export-filename="/home/gonzalo/Proyectos/ecomundo/images/green4.png"
       inkscape:export-xdpi="9"
       inkscape:export-ydpi="9" />
    <path
       style="fill:#85cb48;fill-opacity:1;fill-rule:evenodd;stroke:#000000;stroke-width:1.6196177px;stroke-linecap:butt;stroke-linejoin:miter;stroke-opacity:1"
       d="M 235.09777,286.36313 C 237.18712,278.78613 253.06224,244.57442 240.20693,200.12715 C 233.84848,178.14273 214.40358,140.39854 193.99344,100.13064 C 174.57366,87.090673 233.40913,119.40479 253.83138,158.11477 C 288.08455,223.04101 264.91468,271.66804 267.18112,283.43865 C 268.59562,290.78476 235.50792,286.89565 235.09777,286.36313 z "
       id="path1309"
       sodipodi:nodetypes="cscssc"
       inkscape:export-filename="/home/gonzalo/Proyectos/ecomundo/images/green4.png"
       inkscape:export-xdpi="9"
       inkscape:export-ydpi="9" />
    <path
       style="fill:#91ec41;fill-opacity:1;fill-rule:evenodd;stroke:#000000;stroke-width:1px;stroke-linecap:butt;stroke-linejoin:miter;stroke-opacity:1"
       d="M 211.58131,287.49094 C 210.42748,283.76006 210.37661,283.63759 205.12672,257.84622 C 199.19019,228.68152 200.93071,234.90187 187.54087,183.44456 C 199.78365,216.9956 213.73852,225.33949 220.74142,244.1254 C 234.0903,279.93501 232.55852,279.52821 234.15303,285.90627 C 235.14818,289.88686 211.86986,287.77949 211.58131,287.49094 z "
       id="path2436"
       sodipodi:nodetypes="cscssc"
       inkscape:export-filename="/home/gonzalo/Proyectos/ecomundo/images/green4.png"
       inkscape:export-xdpi="9"
       inkscape:export-ydpi="9" />
    <path
       style="fill:#85cb48;fill-opacity:1;fill-rule:evenodd;stroke:#000000;stroke-width:1.6196177px;stroke-linecap:butt;stroke-linejoin:miter;stroke-opacity:1"
       d="M 321.92786,287.00261 C 319.83851,279.42561 303.96339,245.2139 316.8187,200.76663 C 323.17715,178.78221 342.62205,141.03802 363.03219,100.77012 C 382.45197,87.730156 323.6165,120.04427 303.19425,158.75425 C 268.94108,223.68049 292.11095,272.30752 289.84451,284.07813 C 288.43001,291.42424 321.51771,287.53513 321.92786,287.00261 z "
       id="path2438"
       sodipodi:nodetypes="cscssc"
       inkscape:export-filename="/home/gonzalo/Proyectos/ecomundo/images/green4.png"
       inkscape:export-xdpi="9"
       inkscape:export-ydpi="9" />
    <path
       style="fill:#85cb48;fill-opacity:1;fill-rule:evenodd;stroke:#000000;stroke-width:1.22725964px;stroke-linecap:butt;stroke-linejoin:miter;stroke-opacity:1"
       d="M 219.98394,288.80902 C 221.59116,283.15342 233.80305,257.61718 223.91415,224.44095 C 219.02293,208.03139 211.02218,170.85751 187.59153,167.80368 C 168.01481,165.57123 218.68496,164.18835 234.39472,193.08218 C 260.74386,241.54427 242.92051,277.84036 244.66396,286.62615 C 245.75206,292.10941 220.29944,289.20652 219.98394,288.80902 z "
       id="path2440"
       sodipodi:nodetypes="cscssc"
       inkscape:export-filename="/home/gonzalo/Proyectos/ecomundo/images/green4.png"
       inkscape:export-xdpi="9"
       inkscape:export-ydpi="9" />
    <path
       style="fill:#85cb48;fill-opacity:1;fill-rule:evenodd;stroke:#000000;stroke-width:1.6196177px;stroke-linecap:butt;stroke-linejoin:miter;stroke-opacity:1"
       d="M 297.36871,287.24452 C 295.27936,279.66752 295.463,256.7114 292.25955,201.00854 C 290.98517,178.8492 323.69053,175.40662 286.21794,105.03165 C 263.43169,78.927913 299.05735,120.28618 278.6351,158.99616 C 244.38193,223.9224 267.5518,272.54943 265.28536,284.32004 C 263.87086,291.66615 296.95856,287.77704 297.36871,287.24452 z "
       id="path2444"
       sodipodi:nodetypes="cscssc"
       inkscape:export-filename="/home/gonzalo/Proyectos/ecomundo/images/green4.png"
       inkscape:export-xdpi="9"
       inkscape:export-ydpi="9" />
    <path
       style="fill:#91ec41;fill-opacity:1;fill-rule:evenodd;stroke:#000000;stroke-width:1px;stroke-linecap:butt;stroke-linejoin:miter;stroke-opacity:1"
       d="M 285.67925,288.99973 C 286.83308,285.26885 276.83489,288.1611 282.08478,262.36973 C 288.02131,233.20503 279.24645,237.41557 282.58724,185.95826 C 270.34446,219.5093 264.42883,226.84828 257.42593,245.63419 C 244.07705,281.4438 264.70204,281.037 263.10753,287.41506 C 262.11238,291.39565 285.3907,289.28828 285.67925,288.99973 z "
       id="path2446"
       sodipodi:nodetypes="cscssc"
       inkscape:export-filename="/home/gonzalo/Proyectos/ecomundo/images/green4.png"
       inkscape:export-xdpi="9"
       inkscape:export-ydpi="9" />
    <path
       style="fill:#91ec41;fill-opacity:1;fill-rule:evenodd;stroke:#000000;stroke-width:0.87201965px;stroke-linecap:butt;stroke-linejoin:miter;stroke-opacity:1"
       d="M 346.96715,289.57695 C 345.78059,285.70932 336.76495,268.24615 344.06561,245.5583 C 347.67664,234.33648 363.6764,210.69142 380.97447,193.45683 C 395.42733,191.93014 347.92615,204.35404 336.32816,224.11332 C 316.87545,257.25454 330.03384,282.07593 328.74672,288.08417 C 327.94341,291.83395 346.73423,289.84877 346.96715,289.57695 z "
       id="path2276"
       sodipodi:nodetypes="cscssc"
       inkscape:export-filename="/home/gonzalo/Proyectos/ecomundo/images/green4.png"
       inkscape:export-xdpi="9"
       inkscape:export-ydpi="9" />
    <path
       style="fill:#85cb48;fill-opacity:1;fill-rule:evenodd;stroke:#000000;stroke-width:1.30912936px;stroke-linecap:butt;stroke-linejoin:miter;stroke-opacity:1"
       d="M 339.6332,288.41855 C 337.83347,282.67157 327.55594,257.44748 335.23224,223.01065 C 342.53751,190.23833 349.90844,166.4479 375.90555,165.45842 C 397.82717,163.18989 341.08777,161.78469 323.49632,191.14527 C 293.99108,240.39025 313.94931,277.27269 311.99702,286.20041 C 310.7786,291.77225 339.27991,288.82245 339.6332,288.41855 z "
       id="path2434"
       sodipodi:nodetypes="cscssc"
       inkscape:export-filename="/home/gonzalo/Proyectos/ecomundo/images/green4.png"
       inkscape:export-xdpi="9"
       inkscape:export-ydpi="9" />
  </g>
</svg>
