<?xml version="1.0" encoding="UTF-8" standalone="no"?>
<!-- Created with Inkscape (http://www.inkscape.org/) -->
<svg
   xmlns:dc="http://purl.org/dc/elements/1.1/"
   xmlns:cc="http://web.resource.org/cc/"
   xmlns:rdf="http://www.w3.org/1999/02/22-rdf-syntax-ns#"
   xmlns:svg="http://www.w3.org/2000/svg"
   xmlns="http://www.w3.org/2000/svg"
   xmlns:sodipodi="http://inkscape.sourceforge.net/DTD/sodipodi-0.dtd"
   xmlns:inkscape="http://www.inkscape.org/namespaces/inkscape"
   width="210mm"
   height="297mm"
   id="svg2"
   sodipodi:version="0.32"
   inkscape:version="0.43"
   sodipodi:docbase="/home/gonzalo/Proyectos/ecomundo/images"
   sodipodi:docname="green3.svg">
  <defs
     id="defs4" />
  <sodipodi:namedview
     id="base"
     pagecolor="#ffffff"
     bordercolor="#666666"
     borderopacity="1.0"
     inkscape:pageopacity="0.0"
     inkscape:pageshadow="2"
     inkscape:zoom="0.99511834"
     inkscape:cx="504.14705"
     inkscape:cy="801.44242"
     inkscape:document-units="px"
     inkscape:current-layer="layer1"
     inkscape:window-width="851"
     inkscape:window-height="692"
     inkscape:window-x="0"
     inkscape:window-y="25" />
  <metadata
     id="metadata7">
    <rdf:RDF>
      <cc:Work
         rdf:about="">
        <dc:format>image/svg+xml</dc:format>
        <dc:type
           rdf:resource="http://purl.org/dc/dcmitype/StillImage" />
      </cc:Work>
    </rdf:RDF>
  </metadata>
  <g
     inkscape:label="Capa 1"
     inkscape:groupmode="layer"
     id="layer1">
    <rect
       style="fill:#92622e;fill-opacity:1;fill-rule:evenodd;stroke:none;stroke-width:1;stroke-linecap:round;stroke-miterlimit:4;stroke-dasharray:none;stroke-opacity:1"
       id="rect1307"
       width="200"
       height="200"
       x="182.85715"
       y="89.505043"
       ry="0"
       inkscape:export-filename="/home/gonzalo/Proyectos/ecomundo/images/green3.png"
       inkscape:export-xdpi="9"
       inkscape:export-ydpi="9" />
    <path
       style="fill:#91ec41;fill-opacity:1;fill-rule:evenodd;stroke:#000000;stroke-width:1px;stroke-linecap:butt;stroke-linejoin:miter;stroke-opacity:1"
       d="M 333.07752,287.49094 C 331.60759,283.38524 320.4389,264.84717 329.48305,240.76282 C 333.95644,228.85027 353.77717,203.74979 375.20625,185.45437 C 393.11064,183.83371 334.26554,197.02233 319.89779,217.99785 C 295.79952,253.179 312.10031,279.52821 310.5058,285.90627 C 309.51065,289.88686 332.78897,287.77949 333.07752,287.49094 z "
       id="path2276"
       sodipodi:nodetypes="cscssc"
       inkscape:export-filename="/home/gonzalo/Proyectos/ecomundo/images/green2.png"
       inkscape:export-xdpi="9"
       inkscape:export-ydpi="9" />
    <path
       style="fill:#85cb48;fill-opacity:1;fill-rule:evenodd;stroke:#000000;stroke-width:1.6196177px;stroke-linecap:butt;stroke-linejoin:miter;stroke-opacity:1"
       d="M 258.2106,287.36804 C 260.29995,279.79104 276.17507,245.57933 263.31976,201.13206 C 256.96131,179.14764 237.51641,141.40345 217.10627,101.13555 C 197.68649,88.095579 256.52196,120.4097 276.94421,159.11968 C 311.19738,224.04592 288.02751,272.67295 290.29395,284.44356 C 291.70845,291.78967 258.62075,287.90056 258.2106,287.36804 z "
       id="path1309"
       sodipodi:nodetypes="cscssc"
       inkscape:export-filename="/home/gonzalo/Proyectos/ecomundo/images/green2.png"
       inkscape:export-xdpi="9"
       inkscape:export-ydpi="9" />
    <path
       style="fill:#85cb48;fill-opacity:1;fill-rule:evenodd;stroke:#000000;stroke-width:1.6196177px;stroke-linecap:butt;stroke-linejoin:miter;stroke-opacity:1"
       d="M 319.83198,287.887 C 317.74263,280.31 301.86751,246.09829 314.72282,201.65102 C 321.08127,179.6666 331.48202,129.86354 361.94121,125.77224 C 387.39042,122.78133 321.52062,120.92866 301.09837,159.63864 C 266.8452,224.56488 290.01507,273.19191 287.74863,284.96252 C 286.33413,292.30863 319.42183,288.41952 319.83198,287.887 z "
       id="path2434"
       sodipodi:nodetypes="cscssc"
       inkscape:export-filename="/home/gonzalo/Proyectos/ecomundo/images/green2.png"
       inkscape:export-xdpi="9"
       inkscape:export-ydpi="9" />
    <path
       style="fill:#91ec41;fill-opacity:1;fill-rule:evenodd;stroke:#000000;stroke-width:1px;stroke-linecap:butt;stroke-linejoin:miter;stroke-opacity:1"
       d="M 246.75301,287.49094 C 248.22294,283.38524 259.39163,264.84717 250.34748,240.76282 C 245.87409,228.85027 239.11713,208.77432 198.59484,174.40041 C 180.69045,172.77975 245.56499,197.02233 259.93274,217.99785 C 284.03101,253.179 267.73022,279.52821 269.32473,285.90627 C 270.31988,289.88686 247.04156,287.77949 246.75301,287.49094 z "
       id="path2436"
       sodipodi:nodetypes="cscssc"
       inkscape:export-filename="/home/gonzalo/Proyectos/ecomundo/images/green2.png"
       inkscape:export-xdpi="9"
       inkscape:export-ydpi="9" />
  </g>
</svg>
